<svg width="305" height="74" viewBox="0 0 305 74" fill="none" xmlns="http://www.w3.org/2000/svg">
<path d="M0.539307 0C0.539307 24.555 39.4545 23.5292 58.9482 21.8413C83.3152 19.7313 99.9549 12.8139 120.846 19.3093C133.851 23.3526 132.61 35.9079 144.373 45.0512C156.136 54.1945 207.391 31.9692 207.391 31.9692C207.391 31.9692 243.522 15.7926 247.023 31.9692C250.524 48.1458 236.1 67.4171 242.681 71.3557C254.757 78.5815 286.421 60.1024 305 52.5065" stroke="#F65F19" stroke-width="0.280883"/>
<path d="M283.904 61.012C283.631 60.4234 284.098 59.7604 284.744 59.8186L286.682 59.9931C287.328 60.0513 287.669 60.7871 287.296 61.3175L286.175 62.9087C285.802 63.4391 284.994 63.3664 284.722 62.7778L283.904 61.012Z" fill="#F65F19"/>
<ellipse cx="239.694" cy="25.1024" rx="1.26397" ry="1.26397" fill="#445555"/>
<circle cx="54.813" cy="21.8151" r="2.31849" fill="#445555"/>
</svg>
